# xmcd
#
# Track frame offsets:
#	150
#	14097
#	26387
#	42640
#	51050
#	66460
#	81242
#	90967
#	101177
#	112672
#	125417
#	135877
#	147930
#	161692
#	174992
#	190522
#	203290
#	214595
#	224842
#	237092
#
# Disc length: 3285
#
# Revision: 1
# Processed by: cddbd v1.5.1PL0 Copyright (c) Steve Scherf et al.
# Submitted via: Grip 2.96
# Normalized: r0:DSETVAR1
#
DISCID=100cd314
DTITLE=Various Artist - Country Greats Disc 2 - The Platinum Collection
DYEAR=1900
DGENRE=
TTITLE0=Barbara Fairchild - Crazy Love
TTITLE1=Stonewall Jackson - Ol'Blue
TTITLE2=Rex Allen Junior - Memory Train
TTITLE3=Waylon Jennings - Abilene
TTITLE4=Ray Pillow - How Do I Hide From a Memory
TTITLE5=Billy Walker - Honky Tonkitis
TTITLE6=Don Gibson - Take These Chains From My Heart
TTITLE7=David Houston - I Fall to Pieces
TTITLE8=Jack Green - The Most Beautiful Girl in the World
TTITLE9=Jack Green - Beautiful Lady
TTITLE10=Johnny Russell - Jambalaya
TTITLE11=Don Williams - On Her Way to Being a Woman
TTITLE12=George Jones - A Good Year for The Roses
TTITLE13=Bobby Bare - Detroit City
TTITLE14=Don Gibson - Sweet Dreams
TTITLE15=Hank Thompson - I Recall a Gypsy Woman
TTITLE16=Conway Twitty - It's Only Make Believe
TTITLE17=Porter Wagner - Green, Green Grass of Home
TTITLE18=Willie Nelson - End of Understanding
TTITLE19=Warner Mack - The Bridge Washed Out
EXTD=
EXTT0=
EXTT1=
EXTT2=
EXTT3=
EXTT4=
EXTT5=
EXTT6=
EXTT7=
EXTT8=
EXTT9=
EXTT10=
EXTT11=
EXTT12=
EXTT13=
EXTT14=
EXTT15=
EXTT16=
EXTT17=
EXTT18=
EXTT19=
PLAYORDER=
